<?xml version="1.0"?>
<svg xmlns="http://www.w3.org/2000/svg" viewBox="0 0 150 150">
  <path d="M80.444 988.84 67.46 975.856l-13.006 25.99 25.99-13.006zm6.953.545 20.456-40.91-40.911 20.455-20.456 40.911zm-15.534-65.559c-33.54 1.117-59.5 40.305-46.152 71.406 9.365 26.012 41.403 42.226 67.374 31.818 24.477-8.378 41.216-36.218 34.408-61.752-5.265-24.298-28.876-43.488-54.07-41.502l-.942.018-.618.012zm71.9 52.998c0 37.626-30.502 68.13-68.13 68.13-37.625 0-68.128-30.503-68.128-68.13 0-37.626 30.502-68.129 68.129-68.129 37.626 0 68.129 30.502 68.129 68.13z" style="fill-rule:evenodd;fill:#000" transform="translate(0 -902.36)"/>
</svg>
