<?xml version="1.0" encoding="UTF-8"?>
<svg width="1040px" height="248px" viewBox="0 0 1040 248" version="1.1" xmlns="http://www.w3.org/2000/svg" xmlns:xlink="http://www.w3.org/1999/xlink">
    <!-- Generator: Sketch 53.2 (72643) - https://sketchapp.com -->
    <title>ferry slice</title>
    <desc>Created with Sketch.</desc>
    <g id="ferry-tracker" stroke="none" stroke-width="1" fill="none" fill-rule="evenodd">
        <g id="olympic-ferry" transform="translate(-76.000000, -419.000000)">
            <g id="ferry-olympic-delayed" transform="translate(76.000000, 419.000000)">
                <path d="M7.18310547,247.364746 L1032.40527,248 C1030.75814,238.664714 1033.21973,233.99707 1039.79004,233.99707 C1039.79004,228.72168 1039.79004,225.532227 1039.79004,224.428711 L997.949219,224.428711 L994.964844,214.761719 L983.018555,214.761719 C976.65918,208.044271 972.644857,197.279622 970.975586,182.467773 C975.540039,182.467773 978.430664,182.467773 979.647461,182.467773 L970.975586,160.646484 L896.455078,160.646484 L890.398438,147.1875 L906.619141,144.139648 L904.227539,135.604492 L950.540039,108.09375 L947.967773,105.048828 L904.227539,131.62793 L891.915039,131.62793 L886.833984,120.915039 L893.473633,120.915039 L893.473633,117.78125 L882.242188,117.78125 L882.242188,113.9375 L886.833984,100.503906 L894.763672,100.503906 L893.473633,97.2353516 L886.833984,97.2353516 L882.242188,87.1259766 L875.736328,87.1259766 L875.736328,78.3583984 L870.032227,78.3583984 L870.032227,87.1259766 L868.277344,87.1259766 L868.277344,90.2353516 L819.467773,91.7958984 L816.010742,80.3017578 C828.010742,77.3004557 833.49707,73.4365234 832.469727,68.7099609 C838.220378,68.7099609 841.247396,67.9908854 841.550781,66.5527344 L841.550781,64.0986328 L836.833008,64.0986328 L836.833008,56.7128906 L809.69043,56.7128906 L809.69043,53.1347656 C817.812174,51.7545573 823.206055,49.5 825.87207,46.3710937 C826.193685,44.8658854 826.193685,43.7259115 825.87207,42.9511719 L823.141602,42.9511719 L823.141602,37.9482422 L817.449219,37.9482422 L817.449219,34.6357422 L825.87207,34.6357422 L825.87207,31.5234375 L801.87793,31.5234375 L801.87793,34.6357422 L811.685547,34.6357422 L811.685547,37.9482422 L800.288086,37.9482422 L800.288086,20.0390625 L803.602539,20.0390625 L803.602539,17.5976562 L800.288086,17.5976562 L797.720703,11.5058594 L793.283203,17.5976562 L788.714844,17.5976562 L788.714844,20.0390625 L791.448242,20.0390625 L796.069336,20.0390625 L796.069336,24.4667969 L796.069336,29.8994141 L780.208008,20.0390625 L778.261719,26.3574219 L765.703125,26.3574219 C765.643229,29.6744792 763.501953,33.5380859 759.279297,37.9482422 C761.027344,39.0133464 767.354818,39.5576172 778.261719,39.5810547 L784.871094,53.1347656 L775.676758,53.1347656 L770.047852,61.8964844 L783.321289,61.8964844 C783.083008,70.9459635 786.403646,81.4270833 793.283203,93.3398437 C776.359375,93.28125 766.514648,93.28125 763.749023,93.3398437 L763.749023,85.4638672 L757.915039,85.4638672 L757.915039,106.459961 L741.269531,106.459961 L741.269531,108.09375 L643.507812,108.09375 L640.09668,93.3398437 L580.640625,93.3398437 L569.411133,56.7128906 C567.168945,52.4733073 565.186523,49.6897786 563.463867,48.3623047 C561.186523,48.3597005 559.328776,48.3597005 557.890625,48.3623047 L557.890625,42.9511719 L550.785156,42.9511719 L550.785156,48.3623047 L543.898437,48.3623047 L543.898437,42.9511719 L540.280273,42.9511719 L540.280273,48.3623047 L531.735352,48.3623047 L531.735352,42.9511719 L523.005859,42.9511719 L523.005859,48.3623047 L512.698242,48.3623047 L512.698242,42.9511719 L506.663086,42.9511719 L506.663086,48.3623047 L498.925781,48.3623047 L498.925781,42.9511719 L495.535156,42.9511719 L495.535156,48.3623047 L488.038086,48.3623047 L488.038086,42.9511719 L479.789062,42.9511719 L479.789062,48.3623047 L474.321289,48.3623047 C471.795898,50.9059245 470.533203,52.9335937 470.533203,54.4453125 C469.799479,56.3860677 465.526693,69.3509115 457.714844,93.3398437 L399.798828,93.3398437 L395.722656,108.09375 L297.20459,108.09375 L297.20459,106.459961 L281.953613,106.459961 L281.953613,87.1259766 L280.342773,87.1259766 L280.342773,85.4638672 L274.927246,85.4638672 L274.927246,87.1259766 L273.375977,87.1259766 L273.375977,93.3398437 L251.996094,93.3398437 L251.996094,48.3623047 L255.494141,48.3623047 L255.494141,23.0576172 L251.996094,23.0576172 L251.996094,1.72084569e-15 L247.554688,0 L247.554687,20.0390625 L247.554687,26.3574219 L242.400391,26.3574219 L242.400391,21.5761719 L245.999023,21.5761719 L240.958984,11.5058594 L233.827393,19.9365234 L238.983643,21.4736328 L238.560059,37.9482422 L228.45874,37.9482422 L228.45874,34.6357422 L234.268311,34.6357422 L234.268311,31.5234375 L213.290527,31.5234375 L213.290527,34.6357422 L220.786621,34.6357422 L220.786621,37.9482422 L214.8396,37.9482422 L214.8396,43.6259766 L211.459229,43.6259766 C213.607178,49.8597005 219.900798,53.2213542 230.340088,53.7109375 C230.340088,55.1624349 230.340088,56.3064779 230.340088,57.1430664 L228.45874,57.1430664 L228.45874,63.1359863 L228.45874,64.8911133 L217.109375,64.8911133 L217.109375,61.0961914 L224.79126,61.0961914 L224.79126,56.7128906 L203.609863,57.1430664 L203.609863,64.8911133 L198,64.8911133 L198,67.1882324 L205.390869,68.7099609 C204.234945,75.2019857 210.005859,79.065918 222.703613,80.3017578 C222.714355,82.163737 222.714355,83.3404134 222.703613,83.8317871 L220.786621,83.8317871 L220.786621,89.640625 L218.707764,90.2353516 L218.707764,91.7958984 L198,91.7958984 L169.483398,88.8378906 L169.483398,79.6674805 L169.483398,78.3583984 L163.641602,78.3583984 L163.641602,87.1259766 L160.249023,87.1259766 L160.249023,83.8317871 L155.733398,83.8317871 C155.809896,92.2854004 151.955892,96.7532552 144.171387,97.2353516 C143.330241,98.9401042 142.807454,100.029622 142.603027,100.503906 L151.919434,100.503906 L151.919434,106.459961 L154.01123,106.459961 L154.01123,112.571777 L156.499512,112.571777 L156.499512,117.78125 L142.603027,117.78125 L142.603027,120.915039 L151.919434,120.915039 L145.911621,137.437988 L90.3027344,105.048828 L87.4389648,108.09375 L144.171387,141.013184 L137.390137,141.013184 L137.390137,138.962891 L132.831543,138.962891 L132.831543,144.989746 L142.603027,144.989746 L146.760254,147.1875 L146.760254,151.503418 L142.603027,161.947266 L67.3652344,161.947266 L60.7529297,176.004395 L60.7529297,182.467773 L66.4521484,182.467773 C67.0904948,191.328776 63.7130534,201.636882 56.3198242,213.39209 C49.9819336,213.330566 45.7851562,213.330566 43.7294922,213.39209 L39.3974609,223.452637 L20.4868164,223.452637 L20.4868164,224.428711 L0,224.428711 L9.01874095e-16,234.817383 L5.11474609,234.817383 L5.99658203,239.655762 L7.18310547,243.738281 L7.18310547,247.364746 Z" id="ferry-olympic" fill="#AF9700"></path>
                <polygon id="lower-band" fill="#B9BAB9" points="39.3974609 223.452637 997.949219 224.428711 994.964844 214.761719 45.1035156 214.761719"></polygon>
                <polygon id="smokestack-band" fill="#B9BAB9" points="463.302734 82.2734375 457.714844 93.3398438 580.640625 93.3398438 576.902344 82.2734375"></polygon>
            </g>
        </g>
    </g>
</svg>