<?xml version="1.0"?>
<svg xmlns="http://www.w3.org/2000/svg" width="1040" height="248">
  <g fill="none" fill-rule="evenodd">
    <path fill="#047857" d="m7.183 247.365 1025.222.635c-1.647-9.335.815-14.003 7.385-14.003v-9.568h-41.84l-2.985-9.667h-11.946c-6.36-6.718-10.374-17.482-12.043-32.294h8.671l-8.671-21.822h-74.52l-6.058-13.458 16.221-3.048-2.391-8.536 46.312-27.51-2.572-3.045-43.74 26.579h-12.313l-5.081-10.713h6.64v-3.134h-11.232v-3.844l4.592-13.433h7.93l-1.29-3.269h-6.64l-4.592-10.109h-6.506v-8.768h-5.704v8.768h-1.755v3.11l-48.81 1.56-3.456-11.494c12-3.002 17.486-6.865 16.459-11.592 5.75 0 8.777-.72 9.08-2.157v-2.454h-4.717v-7.386H809.69v-3.578c8.122-1.38 13.516-3.635 16.182-6.764.322-1.505.322-2.645 0-3.42h-2.73v-5.003h-5.693v-3.312h8.423v-3.113h-23.994v3.113h9.808v3.312h-11.398V20.04h3.315v-2.441h-3.315l-2.567-6.092-4.438 6.092h-4.568v2.441H796.069v9.86l-15.861-9.86-1.946 6.318h-12.559c-.06 3.317-2.201 7.181-6.424 11.591 1.748 1.065 8.076 1.61 18.983 1.633l6.61 13.554h-9.195l-5.63 8.761h13.274c-.238 9.05 3.083 19.531 9.962 31.444-16.924-.059-26.768-.059-29.534 0v-7.876h-5.834v20.996H741.27v1.634h-97.762l-3.411-14.754H580.64l-11.23-36.627c-2.242-4.24-4.224-7.023-5.947-8.35-2.277-.003-4.135-.003-5.573 0V42.95h-7.106v5.411h-6.887v-5.41h-3.618v5.41h-8.545v-5.41h-8.73v5.41h-10.307v-5.41h-6.035v5.41h-7.737v-5.41h-3.39v5.41h-7.498v-5.41h-8.249v5.41h-5.468c-2.525 2.544-3.788 4.572-3.788 6.083-.734 1.941-5.006 14.906-12.818 38.895h-57.916l-4.076 14.754h-98.518v-1.634h-15.251V87.126h-1.611v-1.662h-5.416v1.662h-1.551v6.214h-21.38V48.362h3.498V23.058h-3.498V0h-4.441v26.357H242.4v-4.78H246l-5.04-10.071-7.132 8.43 5.157 1.538-.424 16.474H228.46v-3.312h5.81v-3.113H213.29v3.113h7.496v3.312h-5.947v5.678h-3.38c2.147 6.234 8.44 9.595 18.88 10.085v3.432h-1.881v7.748h-11.35v-3.795h7.682v-4.383l-21.181.43v7.748H198v2.297l7.39 1.522c-1.155 6.492 4.616 10.356 17.314 11.592.01 1.862.01 3.038 0 3.53h-1.917v5.809l-2.08.594v1.56H198l-28.517-2.957v-10.48h-5.841v8.768h-3.393v-3.294h-4.516c.077 8.453-3.777 12.921-11.562 13.403-.84 1.705-1.364 2.795-1.568 3.269h9.316v5.956h2.092v6.112h2.489v5.21h-13.897v3.133h9.316l-6.007 16.523-55.61-32.39-2.863 3.046 56.732 32.92h-6.78v-2.051h-4.56v6.027h9.772l4.157 2.197v4.316l-4.157 10.444H67.365l-6.612 14.057v6.464h5.7c.637 8.86-2.74 19.169-10.133 30.924-6.338-.061-10.535-.061-12.59 0l-4.333 10.06h-18.91v.977H0v10.388h5.115l.882 4.839 1.186 4.082v3.627Z"/>
    <path fill="#B9BAB9" d="m39.397 223.453 958.552.976-2.984-9.667H45.104zM463.303 82.273l-5.588 11.067h122.926l-3.739-11.067z"/>
  </g>
</svg>
