<?xml version="1.0" encoding="UTF-8"?>
<svg width="1040px" height="248px" viewBox="0 0 1040 248" version="1.1" xmlns="http://www.w3.org/2000/svg" xmlns:xlink="http://www.w3.org/1999/xlink">
    <!-- Generator: Sketch 53.2 (72643) - https://sketchapp.com -->
    <title>ferry slice</title>
    <desc>Created with Sketch.</desc>
    <g id="Symbols" stroke="none" stroke-width="1" fill="none" fill-rule="evenodd">
        <g id="ferry-olympic" transform="translate(-4.000000, 0.000000)">
            <g transform="translate(0.000000, -0.000000)">
                <path d="M11.1831055,247.364746 L1036.40527,248 C1034.75814,238.664714 1037.21973,233.99707 1043.79004,233.99707 C1043.79004,228.72168 1043.79004,225.532227 1043.79004,224.428711 L1001.94922,224.428711 L998.964844,214.761719 L987.018555,214.761719 C980.65918,208.044271 976.644857,197.279622 974.975586,182.467773 C979.540039,182.467773 982.430664,182.467773 983.647461,182.467773 L974.975586,160.646484 L900.455078,160.646484 L894.398438,147.1875 L910.619141,144.139648 L908.227539,135.604492 L954.540039,108.09375 L951.967773,105.048828 L908.227539,131.62793 L895.915039,131.62793 L890.833984,120.915039 L897.473633,120.915039 L897.473633,117.78125 L886.242188,117.78125 L886.242188,113.9375 L890.833984,100.503906 L898.763672,100.503906 L897.473633,97.2353516 L890.833984,97.2353516 L886.242188,87.1259766 L879.736328,87.1259766 L879.736328,78.3583984 L874.032227,78.3583984 L874.032227,87.1259766 L872.277344,87.1259766 L872.277344,90.2353516 L823.467773,91.7958984 L820.010742,80.3017578 C832.010742,77.3004557 837.49707,73.4365234 836.469727,68.7099609 C842.220378,68.7099609 845.247396,67.9908854 845.550781,66.5527344 L845.550781,64.0986328 L840.833008,64.0986328 L840.833008,56.7128906 L813.69043,56.7128906 L813.69043,53.1347656 C821.812174,51.7545573 827.206055,49.5 829.87207,46.3710937 C830.193685,44.8658854 830.193685,43.7259115 829.87207,42.9511719 L827.141602,42.9511719 L827.141602,37.9482422 L821.449219,37.9482422 L821.449219,34.6357422 L829.87207,34.6357422 L829.87207,31.5234375 L805.87793,31.5234375 L805.87793,34.6357422 L815.685547,34.6357422 L815.685547,37.9482422 L804.288086,37.9482422 L804.288086,20.0390625 L807.602539,20.0390625 L807.602539,17.5976562 L804.288086,17.5976562 L801.720703,11.5058594 L797.283203,17.5976562 L792.714844,17.5976562 L792.714844,20.0390625 L795.448242,20.0390625 L800.069336,20.0390625 L800.069336,24.4667969 L800.069336,29.8994141 L784.208008,20.0390625 L782.261719,26.3574219 L769.703125,26.3574219 C769.643229,29.6744792 767.501953,33.5380859 763.279297,37.9482422 C765.027344,39.0133464 771.354818,39.5576172 782.261719,39.5810547 L788.871094,53.1347656 L779.676758,53.1347656 L774.047852,61.8964844 L787.321289,61.8964844 C787.083008,70.9459635 790.403646,81.4270833 797.283203,93.3398437 C780.359375,93.28125 770.514648,93.28125 767.749023,93.3398437 L767.749023,85.4638672 L761.915039,85.4638672 L761.915039,106.459961 L745.269531,106.459961 L745.269531,108.09375 L647.507812,108.09375 L644.09668,93.3398437 L584.640625,93.3398437 L573.411133,56.7128906 C571.168945,52.4733073 569.186523,49.6897786 567.463867,48.3623047 C565.186523,48.3597005 563.328776,48.3597005 561.890625,48.3623047 L561.890625,42.9511719 L554.785156,42.9511719 L554.785156,48.3623047 L547.898437,48.3623047 L547.898437,42.9511719 L544.280273,42.9511719 L544.280273,48.3623047 L535.735352,48.3623047 L535.735352,42.9511719 L527.005859,42.9511719 L527.005859,48.3623047 L516.698242,48.3623047 L516.698242,42.9511719 L510.663086,42.9511719 L510.663086,48.3623047 L502.925781,48.3623047 L502.925781,42.9511719 L499.535156,42.9511719 L499.535156,48.3623047 L492.038086,48.3623047 L492.038086,42.9511719 L483.789062,42.9511719 L483.789062,48.3623047 L478.321289,48.3623047 C475.795898,50.9059245 474.533203,52.9335937 474.533203,54.4453125 C473.799479,56.3860677 469.526693,69.3509115 461.714844,93.3398437 L403.798828,93.3398437 L399.722656,108.09375 L301.20459,108.09375 L301.20459,106.459961 L285.953613,106.459961 L285.953613,87.1259766 L284.342773,87.1259766 L284.342773,85.4638672 L278.927246,85.4638672 L278.927246,87.1259766 L277.375977,87.1259766 L277.375977,93.3398437 L255.996094,93.3398437 L255.996094,48.3623047 L259.494141,48.3623047 L259.494141,23.0576172 L255.996094,23.0576172 L255.996094,1.72084569e-15 L251.554688,0 L251.554687,20.0390625 L251.554687,26.3574219 L246.400391,26.3574219 L246.400391,21.5761719 L249.999023,21.5761719 L244.958984,11.5058594 L237.827393,19.9365234 L242.983643,21.4736328 L242.560059,37.9482422 L232.45874,37.9482422 L232.45874,34.6357422 L238.268311,34.6357422 L238.268311,31.5234375 L217.290527,31.5234375 L217.290527,34.6357422 L224.786621,34.6357422 L224.786621,37.9482422 L218.8396,37.9482422 L218.8396,43.6259766 L215.459229,43.6259766 C217.607178,49.8597005 223.900798,53.2213542 234.340088,53.7109375 C234.340088,55.1624349 234.340088,56.3064779 234.340088,57.1430664 L232.45874,57.1430664 L232.45874,63.1359863 L232.45874,64.8911133 L221.109375,64.8911133 L221.109375,61.0961914 L228.79126,61.0961914 L228.79126,56.7128906 L207.609863,57.1430664 L207.609863,64.8911133 L202,64.8911133 L202,67.1882324 L209.390869,68.7099609 C208.234945,75.2019857 214.005859,79.065918 226.703613,80.3017578 C226.714355,82.163737 226.714355,83.3404134 226.703613,83.8317871 L224.786621,83.8317871 L224.786621,89.640625 L222.707764,90.2353516 L222.707764,91.7958984 L202,91.7958984 L173.483398,88.8378906 L173.483398,79.6674805 L173.483398,78.3583984 L167.641602,78.3583984 L167.641602,87.1259766 L164.249023,87.1259766 L164.249023,83.8317871 L159.733398,83.8317871 C159.809896,92.2854004 155.955892,96.7532552 148.171387,97.2353516 C147.330241,98.9401042 146.807454,100.029622 146.603027,100.503906 L155.919434,100.503906 L155.919434,106.459961 L158.01123,106.459961 L158.01123,112.571777 L160.499512,112.571777 L160.499512,117.78125 L146.603027,117.78125 L146.603027,120.915039 L155.919434,120.915039 L149.911621,137.437988 L94.3027344,105.048828 L91.4389648,108.09375 L148.171387,141.013184 L141.390137,141.013184 L141.390137,138.962891 L136.831543,138.962891 L136.831543,144.989746 L146.603027,144.989746 L150.760254,147.1875 L150.760254,151.503418 L146.603027,161.947266 L71.3652344,161.947266 L64.7529297,176.004395 L64.7529297,182.467773 L70.4521484,182.467773 C71.0904948,191.328776 67.7130534,201.636882 60.3198242,213.39209 C53.9819336,213.330566 49.7851562,213.330566 47.7294922,213.39209 L43.3974609,223.452637 L24.4868164,223.452637 L24.4868164,224.428711 L4,224.428711 L4,234.817383 L9.11474609,234.817383 L9.99658203,239.655762 L11.1831055,243.738281 L11.1831055,247.364746 Z" fill="#B91C1C"></path>
                <polygon id="lower-band" fill="#B9BAB9" points="43.3974609 223.452637 1001.94922 224.428711 998.964844 214.761719 49.1035156 214.761719"></polygon>
                <polygon id="smokestack-band" fill="#B9BAB9" points="467.302734 82.2734375 461.714844 93.3398438 584.640625 93.3398438 580.902344 82.2734375"></polygon>
            </g>
        </g>
    </g>
</svg>