<?xml version="1.0" standalone="no"?>
<!DOCTYPE svg PUBLIC "-//W3C//DTD SVG 20010904//EN"
 "http://www.w3.org/TR/2001/REC-SVG-20010904/DTD/svg10.dtd">
<svg version="1.0" xmlns="http://www.w3.org/2000/svg"
 width="1280.000000pt" height="1280.000000pt" viewBox="0 0 1280.000000 1280.000000"
 preserveAspectRatio="xMidYMid meet">
<metadata>
Created by potrace 1.15, written by Peter Selinger 2001-2017
</metadata>
<g transform="translate(0.000000,1280.000000) scale(0.100000,-0.100000)"
fill="#000000" stroke="none">
<path d="M6035 12789 c-1890 -112 -3621 -1041 -4757 -2554 -1087 -1447 -1509
-3313 -1153 -5090 405 -2014 1749 -3711 3615 -4565 1872 -856 4051 -757 5837
266 1606 920 2734 2485 3098 4299 303 1511 46 3094 -721 4432 -971 1696 -2665
2858 -4589 3148 -444 67 -908 89 -1330 64z m885 -574 c808 -78 1539 -296 2225
-663 523 -279 953 -599 1381 -1026 227 -228 361 -381 540 -618 558 -741 931
-1605 1088 -2523 61 -360 80 -591 80 -985 0 -394 -19 -625 -80 -985 -176
-1031 -608 -1958 -1300 -2790 -139 -167 -512 -540 -679 -679 -832 -692 -1759
-1124 -2790 -1300 -363 -62 -588 -80 -985 -80 -397 0 -622 18 -985 80 -1031
176 -1958 608 -2790 1300 -167 139 -540 512 -679 679 -808 971 -1250 2042
-1367 3315 -17 175 -17 745 0 920 58 629 188 1181 402 1713 237 586 543 1095
965 1602 139 167 512 540 679 679 1022 850 2190 1309 3515 1380 138 8 632 -4
780 -19z"/>
<path d="M6412 11683 c-44 -21 -89 -74 -101 -120 -14 -49 -14 -486 -1 -535 44
-157 257 -187 351 -50 24 35 24 36 24 317 l0 282 -29 41 c-51 74 -164 105
-244 65z"/>
<path d="M5075 11536 c-71 -31 -124 -130 -110 -205 13 -70 117 -445 130 -470
43 -82 132 -123 217 -101 87 24 147 98 148 184 0 52 -116 482 -142 524 -30 49
-94 82 -159 82 -30 -1 -68 -7 -84 -14z"/>
<path d="M7728 11480 c-67 -36 -83 -69 -148 -311 -62 -229 -70 -283 -50 -343
20 -62 112 -126 180 -126 74 0 160 65 184 138 41 126 116 435 116 476 0 109
-81 186 -192 186 -33 -1 -67 -8 -90 -20z"/>
<path d="M3795 11031 c-78 -35 -124 -121 -110 -205 8 -51 224 -426 274 -477
101 -102 276 -54 317 86 17 59 13 87 -21 155 -42 83 -216 375 -238 398 -56 60
-146 78 -222 43z"/>
<path d="M8960 10951 c-54 -29 -70 -52 -188 -257 -118 -206 -132 -238 -132
-293 1 -160 209 -248 323 -138 50 49 266 435 273 490 21 149 -145 267 -276
198z"/>
<path d="M2670 10188 c-66 -34 -103 -92 -104 -165 0 -36 6 -70 17 -90 21 -40
335 -350 385 -380 41 -25 120 -31 169 -12 64 24 123 109 123 179 0 19 -9 53
-19 75 -24 52 -355 379 -404 400 -52 22 -115 19 -167 -7z"/>
<path d="M9995 10146 c-37 -17 -367 -350 -388 -391 -36 -72 -29 -149 20 -214
48 -62 151 -89 227 -57 41 17 363 343 394 398 13 24 22 58 22 82 -1 76 -57
160 -123 185 -39 15 -116 13 -152 -3z"/>
<path d="M1900 9154 c-88 -32 -125 -64 -148 -133 -24 -68 -6 -140 47 -191 20
-20 128 -88 241 -151 204 -113 205 -114 272 -114 59 0 70 3 104 31 68 55 79
77 79 159 0 106 -19 126 -231 247 -93 53 -192 109 -221 123 -52 27 -115 39
-143 29z"/>
<path d="M10795 9107 c-55 -25 -400 -239 -427 -265 -93 -87 -66 -249 52 -310
36 -19 55 -22 99 -18 47 4 79 20 250 123 107 65 210 130 227 146 92 80 84 233
-17 303 -48 33 -135 43 -184 21z"/>
<path d="M7821 7365 c-899 -502 -1648 -926 -1664 -941 -60 -57 -74 -150 -36
-227 34 -66 95 -152 129 -180 42 -36 98 -51 155 -43 37 6 67 23 153 89 735
559 2889 2202 2897 2208 5 5 7 9 5 9 -3 -1 -740 -412 -1639 -915z"/>
<path d="M1385 7913 c-11 -2 -30 -6 -43 -9 -12 -2 -40 -21 -62 -40 -101 -91
-78 -258 43 -315 23 -10 141 -44 262 -75 243 -62 279 -64 347 -19 108 71 108
249 0 319 -24 16 -119 46 -275 85 -130 34 -240 60 -245 60 -4 -1 -16 -3 -27
-6z"/>
<path d="M11130 7786 c-118 -35 -230 -70 -248 -80 -17 -9 -44 -35 -60 -58 -23
-35 -27 -52 -27 -108 0 -56 4 -73 28 -108 34 -53 90 -82 157 -82 60 0 454 110
513 143 69 39 107 131 87 209 -24 90 -99 148 -190 147 -25 -1 -142 -29 -260
-63z"/>
<path d="M11184 6571 c-98 -5 -115 -9 -151 -33 -105 -70 -121 -210 -32 -299
58 -58 86 -62 369 -52 242 8 246 9 292 36 34 20 53 40 72 79 38 76 31 147 -21
209 -50 59 -89 69 -263 67 -85 -1 -205 -4 -266 -7z"/>
<path d="M1250 6551 c-113 -7 -156 -28 -196 -97 -23 -39 -26 -53 -22 -109 3
-53 9 -71 35 -102 62 -78 65 -78 358 -75 280 4 304 8 357 59 66 63 75 183 20
252 -15 20 -48 46 -72 59 -41 20 -56 22 -215 20 -93 -1 -213 -4 -265 -7z"/>
</g>
</svg>
