<?xml version="1.0"?>
<svg xmlns="http://www.w3.org/2000/svg" width="1706.667" height="1706.667" version="1.0" viewBox="0 0 1280 1280">
  <path d="M603.5 1.1c-189 11.2-362.1 104.1-475.7 255.4C19.1 401.2-23.1 587.8 12.5 765.5 53 966.9 187.4 1136.6 374 1222c187.2 85.6 405.1 75.7 583.7-26.6 160.6-92 273.4-248.5 309.8-429.9 30.3-151.1 4.6-309.4-72.1-443.2C1098.3 152.7 928.9 36.5 736.5 7.5c-44.4-6.7-90.8-8.9-133-6.4zM692 58.5c80.8 7.8 153.9 29.6 222.5 66.3 52.3 27.9 95.3 59.9 138.1 102.6 22.7 22.8 36.1 38.1 54 61.8 55.8 74.1 93.1 160.5 108.8 252.3 6.1 36 8 59.1 8 98.5s-1.9 62.5-8 98.5c-17.6 103.1-60.8 195.8-130 279-13.9 16.7-51.2 54-67.9 67.9-83.2 69.2-175.9 112.4-279 130-36.3 6.2-58.8 8-98.5 8s-62.2-1.8-98.5-8c-103.1-17.6-195.8-60.8-279-130-16.7-13.9-54-51.2-67.9-67.9-80.8-97.1-125-204.2-136.7-331.5-1.7-17.5-1.7-74.5 0-92 5.8-62.9 18.8-118.1 40.2-171.3 23.7-58.6 54.3-109.5 96.5-160.2 13.9-16.7 51.2-54 67.9-67.9 102.2-85 219-130.9 351.5-138 13.8-.8 63.2.4 78 1.9z"/>
  <path d="M641.2 111.7c-4.4 2.1-8.9 7.4-10.1 12-1.4 4.9-1.4 48.6-.1 53.5 4.4 15.7 25.7 18.7 35.1 5 2.4-3.5 2.4-3.6 2.4-31.7v-28.2l-2.9-4.1c-5.1-7.4-16.4-10.5-24.4-6.5zM507.5 126.4c-7.1 3.1-12.4 13-11 20.5 1.3 7 11.7 44.5 13 47 4.3 8.2 13.2 12.3 21.7 10.1 8.7-2.4 14.7-9.8 14.8-18.4 0-5.2-11.6-48.2-14.2-52.4-3-4.9-9.4-8.2-15.9-8.2-3 .1-6.8.7-8.4 1.4zM772.8 132c-6.7 3.6-8.3 6.9-14.8 31.1-6.2 22.9-7 28.3-5 34.3 2 6.2 11.2 12.6 18 12.6 7.4 0 16-6.5 18.4-13.8 4.1-12.6 11.6-43.5 11.6-47.6 0-10.9-8.1-18.6-19.2-18.6-3.3.1-6.7.8-9 2zM379.5 176.9c-7.8 3.5-12.4 12.1-11 20.5.8 5.1 22.4 42.6 27.4 47.7 10.1 10.2 27.6 5.4 31.7-8.6 1.7-5.9 1.3-8.7-2.1-15.5-4.2-8.3-21.6-37.5-23.8-39.8-5.6-6-14.6-7.8-22.2-4.3zM896 184.9c-5.4 2.9-7 5.2-18.8 25.7-11.8 20.6-13.2 23.8-13.2 29.3.1 16 20.9 24.8 32.3 13.8 5-4.9 26.6-43.5 27.3-49 2.1-14.9-14.5-26.7-27.6-19.8zM267 261.2c-6.6 3.4-10.3 9.2-10.4 16.5 0 3.6.6 7 1.7 9 2.1 4 33.5 35 38.5 38 4.1 2.5 12 3.1 16.9 1.2 6.4-2.4 12.3-10.9 12.3-17.9 0-1.9-.9-5.3-1.9-7.5-2.4-5.2-35.5-37.9-40.4-40-5.2-2.2-11.5-1.9-16.7.7zM999.5 265.4c-3.7 1.7-36.7 35-38.8 39.1-3.6 7.2-2.9 14.9 2 21.4 4.8 6.2 15.1 8.9 22.7 5.7 4.1-1.7 36.3-34.3 39.4-39.8 1.3-2.4 2.2-5.8 2.2-8.2-.1-7.6-5.7-16-12.3-18.5-3.9-1.5-11.6-1.3-15.2.3zM190 364.6c-8.8 3.2-12.5 6.4-14.8 13.3-2.4 6.8-.6 14 4.7 19.1 2 2 12.8 8.8 24.1 15.1 20.4 11.3 20.5 11.4 27.2 11.4 5.9 0 7-.3 10.4-3.1 6.8-5.5 7.9-7.7 7.9-15.9 0-10.6-1.9-12.6-23.1-24.7-9.3-5.3-19.2-10.9-22.1-12.3-5.2-2.7-11.5-3.9-14.3-2.9zM1079.5 369.3c-5.5 2.5-40 23.9-42.7 26.5-9.3 8.7-6.6 24.9 5.2 31 3.6 1.9 5.5 2.2 9.9 1.8 4.7-.4 7.9-2 25-12.3 10.7-6.5 21-13 22.7-14.6 9.2-8 8.4-23.3-1.7-30.3-4.8-3.3-13.5-4.3-18.4-2.1zM782.1 543.5c-89.9 50.2-164.8 92.6-166.4 94.1-6 5.7-7.4 15-3.6 22.7 3.4 6.6 9.5 15.2 12.9 18 4.2 3.6 9.8 5.1 15.5 4.3 3.7-.6 6.7-2.3 15.3-8.9 73.5-55.9 288.9-220.2 289.7-220.8.5-.5.7-.9.5-.9-.3.1-74 41.2-163.9 91.5zM138.5 488.7c-1.1.2-3 .6-4.3.9-1.2.2-4 2.1-6.2 4-10.1 9.1-7.8 25.8 4.3 31.5 2.3 1 14.1 4.4 26.2 7.5 24.3 6.2 27.9 6.4 34.7 1.9 10.8-7.1 10.8-24.9 0-31.9-2.4-1.6-11.9-4.6-27.5-8.5-13-3.4-24-6-24.5-6-.4.1-1.6.3-2.7.6zM1113 501.4c-11.8 3.5-23 7-24.8 8-1.7.9-4.4 3.5-6 5.8-2.3 3.5-2.7 5.2-2.7 10.8 0 5.6.4 7.3 2.8 10.8 3.4 5.3 9 8.2 15.7 8.2 6 0 45.4-11 51.3-14.3 6.9-3.9 10.7-13.1 8.7-20.9-2.4-9-9.9-14.8-19-14.7-2.5.1-14.2 2.9-26 6.3zM1118.4 622.9c-9.8.5-11.5.9-15.1 3.3-10.5 7-12.1 21-3.2 29.9 5.8 5.8 8.6 6.2 36.9 5.2 24.2-.8 24.6-.9 29.2-3.6 3.4-2 5.3-4 7.2-7.9 3.8-7.6 3.1-14.7-2.1-20.9-5-5.9-8.9-6.9-26.3-6.7-8.5.1-20.5.4-26.6.7zM125 624.9c-11.3.7-15.6 2.8-19.6 9.7-2.3 3.9-2.6 5.3-2.2 10.9.3 5.3.9 7.1 3.5 10.2 6.2 7.8 6.5 7.8 35.8 7.5 28-.4 30.4-.8 35.7-5.9 6.6-6.3 7.5-18.3 2-25.2-1.5-2-4.8-4.6-7.2-5.9-4.1-2-5.6-2.2-21.5-2-9.3.1-21.3.4-26.5.7z"/>
</svg>
