<?xml version="1.0" encoding="UTF-8"?>
<svg width="85px" height="85px" viewBox="0 0 85 85" version="1.1" xmlns="http://www.w3.org/2000/svg" xmlns:xlink="http://www.w3.org/1999/xlink">
    <!-- Generator: Sketch 53.2 (72643) - https://sketchapp.com -->
    <title>port</title>
    <desc>Created with Sketch.</desc>
    <g id="ferry-tracker" stroke="none" stroke-width="1" fill="none" fill-rule="evenodd">
        <g id="olympic-ferry" transform="translate(-1310.000000, -19.000000)">
            <g id="port" transform="translate(1310.000000, 19.000000)">
                <path d="M1.5,37.975266 L1.5,83.5 L83.5,83.5 L83.5,37.975266 L42.5,1.99567421 L1.5,37.975266 Z" stroke="#E5E7EB" stroke-width="3" fill="#44A5DE"></path>
                <path d="M40,62.37 L40,45 L29,45 L29,39 L40,39 L40,31.1973068 C38.2065959,30.1598786 37,28.2208471 37,26 C37,22.6862915 39.6862915,20 43,20 C46.3137085,20 49,22.6862915 49,26 C49,28.2208471 47.7934041,30.1598786 46,31.1973068 L46,39 L57,39 L57,45 L46,45 L46,62.37 L52.0909091,55 L63,55 L43,74 L23,55 L33.9090909,55 L40,62.37 Z M43,28 C44.1045695,28 45,27.1045695 45,26 C45,24.8954305 44.1045695,24 43,24 C41.8954305,24 41,24.8954305 41,26 C41,27.1045695 41.8954305,28 43,28 Z" id="anchor" fill="#E5E7EB"></path>
            </g>
        </g>
    </g>
</svg>