<?xml version="1.0" encoding="UTF-8"?>
<svg width="236px" height="48px" viewBox="0 0 236 48" version="1.1" xmlns="http://www.w3.org/2000/svg" xmlns:xlink="http://www.w3.org/1999/xlink">
    <!-- Generator: Sketch 53.2 (72643) - https://sketchapp.com -->
    <title>terminal section header</title>
    <desc>Created with Sketch.</desc>
    <g id="ferry-tracker" stroke="none" stroke-width="1" fill="none" fill-rule="evenodd">
        <g id="olympic-ferry" transform="translate(-1470.000000, -38.000000)">
            <g id="terminal-section-header" transform="translate(1469.060000, 38.000000)">
                <path d="M33.6052538,-6.732962e-16 L204.274746,6.732962e-16 C210.069618,-3.91204482e-16 212.170979,0.603366472 214.289497,1.73636257 C216.408016,2.86935868 218.070641,4.53198441 219.203637,6.65050293 C220.336634,8.76902145 220.94,10.870382 220.94,16.6652538 L220.94,31.3347462 C220.94,37.129618 220.336634,39.2309786 219.203637,41.3494971 C218.070641,43.4680156 216.408016,45.1306413 214.289497,46.2636374 C212.170979,47.3966335 210.069618,48 204.274746,48 L33.6052538,48 C27.810382,48 25.7090214,47.3966335 23.5905029,46.2636374 C21.4719844,45.1306413 19.8093587,43.4680156 18.6763626,41.3494971 C17.5433665,39.2309786 16.94,37.129618 16.94,31.3347462 L16.94,16.6652538 C16.94,10.870382 17.5433665,8.76902145 18.6763626,6.65050293 C19.8093587,4.53198441 21.4719844,2.86935868 23.5905029,1.73636257 C25.7090214,0.603366472 27.810382,3.91204482e-16 33.6052538,-6.732962e-16 Z" id="port" fill="#3B82F6"></path>
                <path d="M214.164319,30.2777778 L207.224476,30.2777778 L221.44,43.321413 L235.655524,30.2777778 L228.715681,30.2777778 L223.675294,36.1684028 L223.675294,23.0555556 L232.792941,23.0555556 L232.792941,18.7222222 L223.675294,18.7222222 L223.675294,11.7467417 L223.879888,11.5969212 C224.89278,10.8551966 225.498824,9.69863391 225.498824,8.44444444 C225.498824,6.26887131 223.68443,4.5 221.44,4.5 C219.19557,4.5 217.381176,6.26887131 217.381176,8.44444444 C217.381176,9.69863391 217.98722,10.8551966 219.000112,11.5969212 L219.204706,11.7467417 L219.204706,18.7222222 L211.910588,18.7222222 L211.910588,23.0555556 L218.704706,23.0555556 L219.204706,23.0555556 L219.204706,36.1684028 L214.164319,30.2777778 Z M221.44,10.4259259 C220.327405,10.4259259 219.420392,9.54166982 219.420392,8.44444444 C219.420392,7.34721907 220.327405,6.46296296 221.44,6.46296296 C222.552595,6.46296296 223.459608,7.34721907 223.459608,8.44444444 C223.459608,9.54166982 222.552595,10.4259259 221.44,10.4259259 Z" id="anchor" stroke="#3B82F6" fill="#E5E7EB"></path>
                <path d="M9.16431927,30.2777778 L2.22447569,30.2777778 L16.44,43.321413 L30.6555243,30.2777778 L23.7156807,30.2777778 L18.6752941,36.1684028 L18.6752941,23.0555556 L27.7929412,23.0555556 L27.7929412,18.7222222 L18.6752941,18.7222222 L18.6752941,11.7467417 L18.8798877,11.5969212 C19.8927802,10.8551966 20.4988235,9.69863391 20.4988235,8.44444444 C20.4988235,6.26887131 18.6844298,4.5 16.44,4.5 C14.1955702,4.5 12.3811765,6.26887131 12.3811765,8.44444444 C12.3811765,9.69863391 12.9872198,10.8551966 14.0001123,11.5969212 L14.2047059,11.7467417 L14.2047059,18.7222222 L6.91058824,18.7222222 L6.91058824,23.0555556 L14.2047059,23.0555556 L14.2047059,36.1684028 L9.16431927,30.2777778 Z M16.44,10.4259259 C15.3274048,10.4259259 14.4203922,9.54166982 14.4203922,8.44444444 C14.4203922,7.34721907 15.3274048,6.46296296 16.44,6.46296296 C17.5525952,6.46296296 18.4596078,7.34721907 18.4596078,8.44444444 C18.4596078,9.54166982 17.5525952,10.4259259 16.44,10.4259259 Z" id="anchor" stroke="#3B82F6" fill="#E5E7EB"></path>
            </g>
        </g>
    </g>
</svg>